<svg xmlns="http://www.w3.org/2000/svg" viewBox="0 0 100 100" width="100" height="100">
  <circle cx="50" cy="50" r="46" fill="#10b981" />
  <path d="M68 35 Q85 30 75 55 Q70 65 60 70 L60 82 L52 82 L52 72 L42 72 L42 82 L34 82 L34 65 Q25 60 25 45 Q25 25 50 25 Q68 25 68 35 Z" fill="#34d399" />
  <circle cx="60" cy="38" r="4" fill="#0f172a" />
  <circle cx="62" cy="37" r="1.5" fill="#ffffff" />
  <path d="M62 48 Q55 52 50 47" stroke="#0f172a" stroke-width="2.5" stroke-linecap="round" fill="none" />
  <path d="M30 35 Q35 25 40 35 Q45 25 50 35 Q55 25 60 35" fill="#f59e0b" />
</svg>
